<svg xmlns="http://www.w3.org/2000/svg" xmlns:xlink="http://www.w3.org/1999/xlink" width="1920" zoomAndPan="magnify" viewBox="0 0 1440 809.999993" height="1080" preserveAspectRatio="xMidYMid meet" version="1.0"><path fill="#058d8e" d="M 1441.066406 201.246094 L 1441.066406 210.296875 L 1432.320312 227.476562 L 1429.078125 233.84375 L 1427.449219 237.03125 L 1425.703125 240.140625 L 1418.65625 252.59375 C 1413.902344 260.863281 1409.449219 269.308594 1404.246094 277.292969 L 1396.625 289.441406 L 1392.789062 295.480469 C 1391.507812 297.496094 1390.296875 299.558594 1388.886719 301.488281 L 1372.515625 325.0625 C 1349.9375 356.289062 1324.621094 385.109375 1296.570312 411.527344 C 1293.167969 414.957031 1289.363281 418.011719 1285.820312 421.210938 L 1274.898438 430.722656 C 1271.191406 433.835938 1267.332031 436.746094 1263.542969 439.757812 L 1257.777344 444.242188 C 1255.875 445.679688 1254 447.265625 1252.011719 448.636719 L 1240.167969 457.050781 C 1238.164062 458.492188 1236.234375 459.933594 1234.199219 461.214844 L 1228.078125 465.136719 C 1223.984375 467.742188 1219.921875 470.394531 1215.796875 472.976562 L 1203.289062 480.324219 C 1169.152344 499.625 1133.15625 514.386719 1095.296875 524.609375 C 1090.570312 525.820312 1085.859375 527.144531 1081.101562 528.269531 L 1066.792969 531.496094 L 1052.382812 534.25 C 1047.582031 535.171875 1042.742188 535.820312 1037.972656 536.613281 C 1018.640625 539.46875 999.214844 541.347656 979.695312 542.246094 C 940.714844 544.164062 901.789062 542.246094 863.300781 538.328125 C 824.808594 534.40625 786.75 528.328125 749.039062 521.597656 C 673.667969 508.023438 599.597656 491.449219 525.757812 480.871094 C 507.296875 478.234375 488.882812 475.972656 470.492188 474.199219 C 452.105469 472.425781 433.761719 471.316406 415.503906 470.726562 C 397.246094 470.136719 379.058594 470.265625 361.015625 471.21875 C 342.972656 472.167969 325.089844 473.957031 307.421875 476.621094 C 281.09375 480.425781 255.296875 486.496094 230.03125 494.828125 C 204.765625 503.15625 180.417969 513.621094 156.988281 526.222656 C 153.128906 528.355469 149.238281 530.402344 145.460938 532.578125 L 134.019531 539.410156 C 130.199219 541.597656 126.539062 544.0625 122.835938 546.46875 L 117.304688 550.070312 C 115.457031 551.253906 113.597656 552.449219 111.828125 553.761719 L 101.03125 561.382812 C 99.21875 562.625 97.488281 563.992188 95.730469 565.332031 L 90.484375 569.355469 L 85.226562 573.359375 C 83.496094 574.730469 81.808594 576.15625 80.109375 577.554688 C 76.722656 580.433594 73.265625 583.085938 69.933594 585.984375 C 56.53125 597.511719 43.792969 609.71875 31.558594 622.484375 C 20.519531 634.015625 10 646.023438 0 658.511719 L 0 541.902344 C 6.726562 536.136719 13.542969 530.570312 20.449219 525.199219 C 24.453125 522.042969 28.589844 519.074219 32.65625 516.019531 C 34.699219 514.578125 36.71875 512.964844 38.792969 511.480469 L 45.078125 507.15625 L 51.34375 502.832031 C 53.449219 501.394531 55.523438 499.953125 57.6875 498.511719 L 70.570312 490.296875 C 72.703125 488.855469 74.890625 487.617188 77.097656 486.332031 L 83.695312 482.472656 C 88.09375 479.90625 92.445312 477.285156 96.984375 474.949219 L 110.457031 467.742188 C 114.996094 465.4375 119.609375 463.261719 124.175781 461.027344 C 137.925781 454.460938 151.933594 448.503906 166.203125 443.15625 C 180.472656 437.808594 194.945312 433.09375 209.625 429.007812 C 224.300781 424.917969 239.128906 421.476562 254.109375 418.683594 C 269.085938 415.886719 284.160156 413.746094 299.324219 412.261719 C 319.339844 410.214844 339.371094 409.207031 359.300781 409.078125 C 379.230469 408.949219 399.046875 409.84375 418.703125 411.355469 C 438.359375 412.867188 457.871094 415.074219 477.195312 417.839844 C 496.519531 420.605469 515.671875 423.921875 534.679688 427.566406 C 610.710938 442.195312 684.203125 462.382812 757.667969 479.230469 C 794.386719 487.585938 831.164062 495.28125 867.984375 500.84375 C 904.800781 506.40625 941.910156 509.953125 978.945312 509.894531 C 997.425781 509.914062 1015.863281 509.011719 1034.253906 507.1875 C 1038.820312 506.652344 1043.433594 506.25 1047.988281 505.601562 L 1061.691406 503.65625 L 1075.308594 501.25 C 1079.847656 500.414062 1084.332031 499.375 1088.855469 498.4375 C 1125.144531 490.402344 1159.867188 477.988281 1193.03125 461.203125 L 1205.410156 454.816406 L 1217.484375 447.886719 L 1223.523438 444.414062 C 1225.539062 443.246094 1227.457031 441.933594 1229.417969 440.695312 L 1241.175781 433.160156 C 1243.164062 431.949219 1245.039062 430.566406 1246.941406 429.210938 L 1252.617188 425.160156 C 1256.394531 422.421875 1260.269531 419.800781 1263.972656 416.976562 L 1274.953125 408.328125 C 1278.601562 405.445312 1282.363281 402.566406 1285.804688 399.453125 C 1314.40625 374.953125 1340.449219 347.980469 1363.925781 318.535156 L 1381.148438 296.097656 C 1382.585938 294.253906 1383.914062 292.28125 1385.269531 290.335938 L 1389.316406 284.570312 L 1397.402344 272.941406 C 1402.964844 265.289062 1407.761719 257.089844 1412.863281 249.164062 L 1420.429688 237.160156 L 1422.304688 234.148438 L 1424.074219 231.0625 L 1427.59375 224.894531 Z M 1441.066406 201.246094 " fill-opacity="1" fill-rule="nonzero"/><path fill="#cde8e8" d="M 1441.066406 0.335938 L 1441.066406 145.003906 C 1417.214844 186.757812 1390.253906 226.398438 1360.179688 263.917969 C 1344.65625 283.242188 1328.160156 301.699219 1310.691406 319.285156 C 1293.234375 336.980469 1274.785156 353.570312 1255.339844 369.058594 C 1235.765625 384.496094 1215.242188 398.539062 1193.765625 411.195312 L 1177.464844 420.320312 C 1171.933594 423.199219 1166.3125 425.894531 1160.75 428.691406 C 1155.1875 431.488281 1149.496094 433.90625 1143.847656 436.445312 C 1138.199219 438.980469 1132.460938 441.273438 1126.742188 443.5625 C 1103.855469 452.617188 1080.519531 460.304688 1056.734375 466.621094 C 1050.824219 468.234375 1044.859375 469.601562 1038.921875 471.117188 C 1032.984375 472.628906 1027.003906 473.882812 1021.011719 475.066406 C 1009.050781 477.601562 997 479.703125 984.867188 481.519531 C 978.742188 482.414062 972.820312 483.222656 966.378906 483.855469 L 957.183594 484.546875 L 952.601562 484.890625 L 948.003906 485.109375 L 938.8125 485.542969 L 929.617188 485.726562 C 926.5625 485.828125 923.492188 485.726562 920.421875 485.726562 C 917.355469 485.726562 914.300781 485.726562 911.242188 485.613281 C 898.996094 485.339844 886.746094 484.519531 874.65625 483.410156 C 862.566406 482.296875 850.472656 480.65625 838.5 478.867188 C 814.5625 475.195312 790.945312 470.582031 767.410156 465.898438 C 755.625 463.578125 743.804688 461.128906 732.0625 458.507812 C 720.316406 455.882812 708.617188 453.015625 696.957031 450.03125 C 650.390625 438.023438 604.6875 423.320312 559.855469 405.921875 C 605.445312 420.71875 651.746094 432.789062 698.757812 442.136719 C 710.488281 444.421875 722.238281 446.566406 734.007812 448.5625 C 745.796875 450.507812 757.570312 452.265625 769.429688 453.910156 C 793.164062 457.195312 816.855469 460.453125 840.488281 462.714844 C 852.304688 463.796875 864.105469 464.6875 875.894531 465.148438 C 887.683594 465.609375 899.441406 465.699219 911.171875 465.292969 C 914.054688 465.292969 917.023438 465.035156 919.949219 464.90625 C 922.875 464.773438 925.8125 464.632812 928.722656 464.371094 L 937.484375 463.695312 L 946.234375 462.785156 L 950.554688 462.339844 L 954.878906 461.761719 L 963.527344 460.609375 C 966.175781 460.191406 969.132812 459.671875 971.957031 459.167969 C 974.78125 458.664062 977.71875 458.101562 980.601562 457.484375 C 1026.699219 447.945312 1071.148438 433.371094 1113.945312 413.761719 C 1119.21875 411.296875 1124.507812 408.890625 1129.636719 406.167969 C 1134.769531 403.445312 1140.042969 400.992188 1144.984375 398.054688 C 1149.929688 395.113281 1155.074219 392.40625 1159.972656 389.40625 L 1174.554688 380.128906 C 1193.753906 367.289062 1212.007812 353.226562 1229.316406 337.933594 C 1246.589844 322.515625 1262.894531 306.128906 1278.226562 288.777344 C 1293.632812 271.414062 1308.082031 253.285156 1321.574219 234.390625 C 1348.636719 196.410156 1372.484375 156.507812 1393.121094 114.683594 C 1403.496094 93.824219 1413.105469 72.628906 1421.945312 51.089844 C 1428.789062 34.316406 1435.300781 17.351562 1441.066406 0.335938 Z M 1441.066406 0.335938 " fill-opacity="1" fill-rule="nonzero"/><path fill="#cde8e8" d="M 559.855469 532.78125 C 530.402344 525.882812 500.566406 521.71875 470.351562 520.285156 C 440.355469 518.796875 410.464844 519.941406 380.671875 523.714844 C 351.105469 527.457031 322.125 533.859375 293.734375 542.925781 C 279.667969 547.523438 265.777344 552.566406 252.214844 558.386719 C 248.800781 559.742188 245.472656 561.382812 242.128906 562.867188 C 238.785156 564.351562 235.398438 565.851562 232.113281 567.539062 L 222.210938 572.410156 C 218.941406 574.082031 215.726562 575.867188 212.472656 577.582031 C 186.632812 591.503906 162.304688 607.691406 139.480469 626.144531 C 128.183594 635.355469 117.332031 645.066406 106.871094 655.167969 C 96.40625 665.269531 86.59375 675.964844 77.15625 686.960938 C 67.714844 697.953125 58.765625 709.410156 50.4375 721.199219 C 42.109375 732.988281 34.109375 745.089844 26.773438 757.5 C 19.441406 769.90625 12.636719 782.558594 6.484375 795.527344 C 4.238281 800.21875 2.074219 804.929688 0 809.664062 L 0 709.066406 C 4.371094 703.425781 8.847656 697.878906 13.429688 692.421875 C 23.59375 680.296875 34.273438 668.671875 45.464844 657.546875 C 56.664062 646.4375 68.292969 635.773438 80.382812 625.699219 C 92.472656 615.625 105.039062 606.171875 117.964844 597.265625 C 143.832031 579.53125 171.117188 564.339844 199.816406 551.699219 C 203.390625 550.144531 206.9375 548.542969 210.523438 547.058594 L 221.375 542.738281 C 224.964844 541.296875 228.582031 539.984375 232.300781 538.660156 C 236.019531 537.332031 239.578125 535.949219 243.28125 534.796875 C 257.992188 529.824219 272.953125 525.703125 287.953125 522.085938 C 318.046875 515.046875 348.53125 510.804688 379.402344 509.363281 C 410.035156 507.914062 440.558594 509.164062 470.96875 513.109375 C 501.199219 516.957031 530.824219 523.511719 559.855469 532.78125 Z M 559.855469 532.78125 " fill-opacity="1" fill-rule="nonzero"/></svg>